Cover:  
http://www.shotpix.com/images/65430887586660868401.jpg



Release Title Karmin - Brokenhearted (2012)

Music video by Karmin performing Brokenhearted. (C) 2012 Epic Records, a division of Sony Music Entertainment


                             1080p Full HD MP4 Video
                                      +
                              96 Kbps/VBR M4A Audio


Sing Along!
English subtitles included.



General
Format                         : MPEG-4
Format profile                 : Base Media / Version 2
Codec ID                       : mp42
File size                      : 40.0 MiB
Duration                       : 3mn 52s
Overall bit rate mode          : Variable
Overall bit rate               : 1 445 Kbps


Video
ID                             : 1
Format                         : AVC
Format/Info                    : Advanced Video Codec
Duration                       : 3mn 52s
Bit rate mode                  : Variable
Bit rate                       : 1 312 Kbps
Width                          : 1 920 pixels
Height                         : 1 080 pixels
Display aspect ratio           : 16:9
Frame rate mode                : Variable
Frame rate                     : 23.976 fps
Scan type                      : Progressive
Stream size                    : 36.3 MiB (91%)
Writing library                : x264 core 125


Audio
ID                             : 2
Format                         : AAC
Format/Info                    : Advanced Audio Codec
Format profile                 : LC
Codec ID                       : 40
Duration                       : 3mn 52s
Bit rate mode                  : Variable
Bit rate                       : 128 Kbps
Channel(s)                     : 2 channels
Channel positions              : Front: L R
Sampling rate                  : 48.0 KHz
Stream size                    : 3.54 MiB (9%)


Subtitle                       : Yes (English)




Screens:

 
http://www.shotpix.com/images/88202484820615427507.jpg 
http://www.shotpix.com/images/18826303555421147135.jpg

Thumbs:
 
http://www.shotpix.com/images/79371368781794079568.jpg


------------------------------------------------------------------------


Notes:

* Best played on VLC Media Player.
* Install shark007 codecs in case of any kind of problem in playback (For non-VLC Media Player users).
* Alternatively, install Core AVC codecs, the fastest decoder that there is coupled with Community Center Codec Pack and play on Windows Media Player Classic.
* Read NFO
* Help in seeding this torrent as much as you can. 



Greets to: srkfan, VYTO, MgB, staff members at ExtraTorrent, TPB,KAT, 1337x, PublicHD, Ahashare,
SilverTorrent, TorrentMafia, P2PDL, and all others


Encoder Notes: Looking For Early Access To Anything You Can Provide DVDScr, R5, DVDRips, BluRay, Direct Audio, Early Music
Releases, Seedboxes, Links, Dedicated Servers anything u can provide, Advance / Promo CDs/DVDs. If You Got anything to
offer contact me at "contact@tinym.eu"


Facebook Fan Page: www . facebook . com / p2pdl

                                 Enjoy!